<svg width="14" height="16" viewBox="0 0 14 16" fill="none" xmlns="http://www.w3.org/2000/svg">
<path d="M11.2479 8.46271C11.2122 8.8912 11.2836 9.31969 11.4979 9.74819C11.8192 10.6409 12.462 11.3193 13.4261 11.7478C13.1404 12.6762 12.6762 13.5332 12.1049 14.3545C11.3193 15.4257 10.5338 15.997 9.78389 15.997C9.42682 15.997 8.99833 15.8899 8.49842 15.6757C7.9271 15.4614 7.42719 15.3543 7.03441 15.3543C6.60591 15.3543 6.10601 15.4971 5.49898 15.7114C4.99907 15.9256 4.60629 15.997 4.35633 15.997C3.82072 16.0327 3.2494 15.7471 2.67807 15.14C2.21387 14.7115 1.74967 14.0688 1.32118 13.2832C0.964106 12.6405 0.678445 12.0692 0.499907 11.5336C0.142831 10.5338 0 9.56965 0 8.64125C0 7.64144 0.178538 6.74874 0.60703 5.99888C0.964106 5.32044 1.46401 4.78482 2.10675 4.42775C2.74949 4.07067 3.39223 3.89213 4.10638 3.85643C4.46346 3.85643 5.07049 3.99926 5.85605 4.28492C6.35596 4.49916 6.67733 4.57058 6.82016 4.57058C6.96299 4.57058 7.24865 4.49916 7.71285 4.32062C8.14134 4.17779 8.49842 4.03496 8.78408 3.96355C9.21257 3.85643 9.64106 3.82072 9.99814 3.82072C11.355 3.96355 12.3548 4.49916 13.0333 5.42756C11.8192 6.14171 11.2122 7.17724 11.2479 8.46271ZM9.21257 2.57095V2.60666C8.427 3.49935 7.60573 3.89213 6.74874 3.82072C6.64162 2.89232 6.92728 2.03534 7.64144 1.24977C7.9271 0.928399 8.28417 0.642738 8.74837 0.392784C9.17686 0.178538 9.64106 0.0357076 10.0696 0C10.141 0.964106 9.85531 1.82109 9.21257 2.57095Z" fill="#999999"/>
</svg>
