<svg width="14" height="16" viewBox="0 0 14 16" fill="none" xmlns="http://www.w3.org/2000/svg">
<path d="M6.31793 3.87307C6.31793 3.90431 6.31793 3.90431 6.3804 3.90431C6.41163 3.90431 6.44287 3.90431 6.4741 3.87307L6.53657 3.84184C6.56781 3.84184 6.59904 3.8106 6.59904 3.8106C6.59904 3.8106 6.59904 3.77937 6.56781 3.74813C6.53657 3.74813 6.4741 3.74813 6.41163 3.77937C6.34916 3.8106 6.31793 3.84184 6.31793 3.87307ZM7.09879 3.84184H7.03632L6.97385 3.8106C6.97385 3.8106 6.97385 3.77937 7.00509 3.74813C7.03632 3.74813 7.09879 3.74813 7.1925 3.77937C7.25496 3.8106 7.2862 3.84184 7.2862 3.87307C7.2862 3.90431 7.25496 3.90431 7.22373 3.90431C7.16126 3.90431 7.13003 3.90431 7.13003 3.87307L7.09879 3.84184ZM13.8142 13.5245H13.783C13.783 13.3059 13.6268 12.9935 13.3144 12.6187C13.252 12.5562 13.1583 12.3376 13.0958 12.0253V11.994C13.0021 11.6505 12.8772 11.4318 12.7522 11.3069L12.6273 11.2132L12.5024 11.1507C12.7522 10.4011 12.721 9.55774 12.4086 8.68318C12.0963 7.96479 11.6278 7.18392 10.9406 6.34059L10.9094 6.30936C10.5658 5.87208 10.3159 5.55973 10.191 5.30986C9.97236 4.93504 9.87866 4.529 9.90989 4.09171V3.93554C9.90989 3.21715 9.87866 2.65493 9.84742 2.24888C9.72249 1.59296 9.53508 1.06197 9.22273 0.687158C8.81669 0.249876 8.25447 0 7.53607 0C6.69274 0 6.06805 0.218641 5.66201 0.655924C5.31843 0.999502 5.13102 1.46802 5.06855 2.09271C5.00608 2.46752 5.00608 2.99851 5.06855 3.6232C5.06855 3.93554 5.09979 4.12295 5.09979 4.21665C5.06855 4.6227 5.00608 4.96628 4.91238 5.24739C4.78744 5.59097 4.63127 5.93455 4.38139 6.24689C3.4756 7.30886 2.88214 8.3396 2.5698 9.27663C2.35116 9.90132 2.28869 10.4323 2.38239 10.9321C2.28869 10.9945 2.19498 11.1195 2.07004 11.3069L1.88264 11.5567C1.78893 11.6505 1.63276 11.7129 1.41412 11.7754L1.32042 11.8066C1.03931 11.9316 0.851901 12.0877 0.758198 12.2751C0.695729 12.4001 0.664495 12.525 0.664495 12.65C0.664495 12.7437 0.664495 12.8686 0.695729 13.0248L0.726963 13.0872C0.758198 13.3996 0.758198 13.587 0.726963 13.6807C0.570791 14.118 0.539557 14.4616 0.664495 14.649C0.758198 14.8676 0.976839 14.9925 1.28918 15.055C1.41412 15.0862 1.60153 15.1175 1.8514 15.1175C2.44486 15.2112 2.88214 15.3049 3.13202 15.4298L3.19449 15.3361L3.13202 15.4298C3.75671 15.8046 4.35016 15.8983 4.88115 15.7734C5.25596 15.7109 5.53707 15.4923 5.69324 15.1487C5.81818 15.1487 6.00559 15.1175 6.2867 15.055C6.66151 14.9925 6.97385 14.9613 7.22373 14.9301C7.34867 14.9301 7.56731 14.9301 7.94212 14.9925C8.34817 15.055 8.69175 15.0862 8.94162 15.055C8.94162 15.1487 8.97286 15.2112 9.00409 15.2736C9.12903 15.5235 9.2852 15.7109 9.53508 15.8359C9.75372 15.9608 10.0036 16.0233 10.2535 15.992C10.8157 15.9608 11.3154 15.6797 11.784 15.1175L11.6903 15.055L11.784 15.1175C11.9714 14.8676 12.3462 14.6177 12.9084 14.3678C13.0958 14.2429 13.252 14.1804 13.3769 14.118C13.6268 13.9618 13.783 13.7744 13.8142 13.5245ZM7.09879 3.40456C7.03632 3.18591 7.06756 2.96727 7.1925 2.7174C7.31743 2.40505 7.53607 2.21765 7.84842 2.21765C8.16076 2.21765 8.3794 2.40505 8.56681 2.7174C8.62928 2.93604 8.66051 3.15468 8.66051 3.40456C8.62928 3.65443 8.53558 3.84184 8.41064 3.96678C8.34817 3.93554 8.22323 3.87307 8.03583 3.8106L8.06706 3.77937L8.16076 3.68567C8.22323 3.49826 8.22323 3.31085 8.16076 3.12345C8.09829 2.93604 8.00459 2.84234 7.87965 2.84234C7.75472 2.84234 7.62978 2.9048 7.56731 3.06098C7.47361 3.21715 7.44237 3.37332 7.50484 3.56073C7.3799 3.49826 7.25496 3.46702 7.09879 3.40456ZM5.66201 3.99801C5.4746 3.87307 5.3809 3.65443 5.34966 3.40456C5.31843 3.15468 5.34966 2.9048 5.4746 2.68616C5.5683 2.49876 5.69324 2.37382 5.88065 2.37382C6.06805 2.37382 6.22423 2.49876 6.34916 2.68616C6.4741 2.87357 6.50534 3.12345 6.50534 3.40456C6.3804 3.46702 6.25546 3.49826 6.19299 3.56073C6.19299 3.43579 6.19299 3.27962 6.13052 3.15468C6.06805 3.02974 5.97435 2.96727 5.84941 2.96727C5.72448 2.96727 5.66201 3.09221 5.66201 3.31085C5.66201 3.56073 5.72448 3.7169 5.84941 3.8106V3.84184L5.75571 3.90431C5.69324 3.96678 5.66201 3.99801 5.66201 3.99801ZM5.34966 4.65393C5.28719 4.49776 5.34966 4.37282 5.4746 4.24789L5.97435 3.90431C6.22423 3.65443 6.50534 3.49826 6.75521 3.49826C7.00509 3.49826 7.2862 3.59196 7.59854 3.77937C7.66101 3.84184 7.78595 3.87307 7.94212 3.93554L8.31694 4.06048C8.62928 4.18542 8.72298 4.40406 8.62928 4.65393C8.53558 4.90381 8.31694 5.09122 7.94212 5.18492C7.84842 5.24739 7.72348 5.30986 7.56731 5.40356C7.41114 5.49726 7.2862 5.55973 7.22373 5.59097C7.06756 5.65344 6.91139 5.68467 6.75521 5.65344C6.63028 5.65344 6.50534 5.65344 6.41163 5.59097C6.31793 5.55973 6.22423 5.49726 6.09929 5.37233C5.97435 5.24739 5.88065 5.18492 5.81818 5.12245C5.5683 4.99751 5.41213 4.84134 5.34966 4.65393ZM4.31893 12.5562C4.38139 12.7124 4.53757 12.9623 4.84991 13.3059C5.09979 13.6495 5.25596 13.8993 5.3809 14.0243C5.53707 14.3054 5.59954 14.524 5.59954 14.6802C5.53707 15.2112 5.25596 15.5235 4.75621 15.586C4.25646 15.6485 3.75671 15.5548 3.22572 15.2424C2.91338 15.1175 2.47609 14.9925 1.8514 14.9301C1.53906 14.8988 1.32042 14.8676 1.22671 14.8051C1.03931 14.7739 0.91437 14.7114 0.851901 14.5865C0.758198 14.4303 0.789432 14.1492 0.945605 13.7432C0.976839 13.6182 0.976839 13.3996 0.91437 13.0872V12.9935C0.851901 12.7124 0.883136 12.4938 0.945605 12.3688C1.00807 12.2439 1.16425 12.119 1.41412 12.0253L1.53906 11.9628C1.72647 11.9003 1.88264 11.8379 2.00758 11.7129C2.07004 11.6505 2.13251 11.5567 2.25745 11.4006L2.47609 11.1507C2.60103 10.9633 2.78844 10.9008 3.03831 10.9321C3.25695 10.9945 3.4756 11.1507 3.69424 11.4318L4.31893 12.5562ZM9.12903 13.6495C8.56681 14.0555 7.97336 14.2741 7.41114 14.3366C6.72398 14.4303 6.09929 14.2741 5.53707 13.8993C5.44337 13.7432 5.28719 13.5245 5.09979 13.2746C5.34966 13.2746 5.53707 13.1809 5.59954 12.9935C5.66201 12.8061 5.59954 12.525 5.3809 12.2127C5.19349 11.994 4.94361 11.7442 4.63127 11.4943L4.19399 11.2132C3.78794 10.9633 3.53806 10.6509 3.41313 10.2761C3.28819 9.96379 3.28819 9.58898 3.41313 9.18293C3.50683 8.68318 3.78794 8.05849 4.25646 7.30886C4.31893 7.24639 4.25646 7.46503 4.00658 7.96479C3.78794 8.37083 3.663 8.74565 3.60053 9.12046C3.50683 9.68268 3.60053 10.1824 3.91288 10.5572C3.91288 9.93256 4.06905 9.27663 4.35016 8.62071L4.5688 8.12096C4.84991 7.49627 5.06855 7.02775 5.19349 6.65294C5.41213 6.05948 5.53707 5.5285 5.5683 5.09122L5.75571 5.24739C5.81818 5.27862 5.88065 5.34109 6.00559 5.43479L6.16176 5.55973C6.34916 5.7159 6.53657 5.77837 6.78645 5.77837C7.00509 5.77837 7.22373 5.7159 7.47361 5.59097L7.66101 5.46603C7.78595 5.40356 7.91089 5.34109 7.97336 5.30986C8.2857 5.21615 8.50434 5.05998 8.66051 4.84134C8.78545 5.30986 8.97286 5.84084 9.22273 6.4343C9.41014 7.02775 9.62878 7.49627 9.84742 7.83985C10.2222 8.52701 10.4409 9.21416 10.5658 9.83885C10.6595 9.83885 10.7845 9.87009 10.9094 9.90132C11.0968 9.40157 11.0656 8.87058 10.8469 8.27713C10.6595 7.83985 10.4409 7.49627 10.191 7.24639C10.0348 7.12146 10.0036 7.02775 10.0973 7.02775C10.3159 7.24639 10.5346 7.49627 10.722 7.80861C10.9406 8.18343 11.0968 8.52701 11.1905 8.90182C11.2842 9.27663 11.2842 9.65145 11.2217 9.99502C11.9714 10.3074 12.3149 10.6822 12.19 11.0882H12.0338C12.0963 10.9321 12.0651 10.7759 11.9401 10.6509C11.8152 10.526 11.6278 10.4011 11.3154 10.2761C10.5658 9.96379 10.191 10.0887 10.1285 10.6509C9.78495 10.7759 9.56631 11.0882 9.47261 11.5255C9.41014 11.7754 9.34767 12.1814 9.31644 12.7437C9.31644 12.9311 9.25397 13.2122 9.12903 13.6182V13.6495ZM13.1583 12.7437V12.7749C13.4394 13.0872 13.5956 13.3371 13.5956 13.5245C13.5643 13.6495 13.4706 13.7744 13.3457 13.8681C13.252 13.9306 13.0646 14.0243 12.8147 14.1492C12.5336 14.2741 12.3149 14.3991 12.19 14.4928C11.9401 14.649 11.7527 14.8051 11.6278 14.9925C11.1905 15.4923 10.7532 15.7422 10.2535 15.7734C9.75372 15.8359 9.41014 15.6172 9.1915 15.1799C9.06656 14.9301 9.0978 14.5553 9.22273 14.0555L9.34767 13.6495C9.47261 13.2434 9.53508 12.9623 9.53508 12.7749C9.56631 12.2127 9.59755 11.8066 9.66002 11.5567C9.72249 11.2444 9.87866 11.0258 10.0973 10.9008H10.1285C10.1285 11.1195 10.191 11.3069 10.3159 11.4943C10.4096 11.6817 10.5346 11.7754 10.722 11.8066C10.9094 11.8691 11.0968 11.8379 11.3467 11.7129C11.5966 11.588 11.784 11.463 11.9089 11.3069H11.9714C12.1275 11.3069 12.2525 11.3069 12.3462 11.3069C12.4399 11.3381 12.5336 11.4006 12.6273 11.463C12.721 11.5567 12.8147 11.7754 12.8772 12.0877C12.9396 12.4313 13.0333 12.65 13.1583 12.7437ZM5.59954 4.65393C5.53707 4.6227 5.50583 4.59146 5.50583 4.529C5.50583 4.46653 5.50583 4.43529 5.53707 4.43529C5.5683 4.43529 5.59954 4.46653 5.66201 4.529L5.69324 4.59146L5.94312 4.81011C6.19299 5.02875 6.44287 5.12245 6.69274 5.12245C6.94262 5.12245 7.25496 5.02875 7.62978 4.77887C7.69225 4.77887 7.81718 4.68517 7.97336 4.56023L8.06706 4.49776C8.09829 4.49776 8.12953 4.46653 8.16076 4.40406C8.192 4.34159 8.22323 4.34159 8.25447 4.34159C8.31694 4.34159 8.2857 4.43529 8.16076 4.56023C8.00459 4.68517 7.84842 4.81011 7.69225 4.87257C7.25496 5.09122 6.94262 5.18492 6.72398 5.18492C6.41163 5.18492 6.13052 5.09122 5.84941 4.87257L5.63077 4.65393H5.59954Z" fill="#999999"/>
</svg>
