<svg width="160" height="160" viewBox="0 0 160 160" fill="none" xmlns="http://www.w3.org/2000/svg">
<path d="M15 64.2649H19.95L27.199 87.2049L34.448 64.2649H39.398L29.011 95.7339H25.343L15 64.2649Z" fill="white"/>
<path d="M63.2321 68.5519H47.8951V77.7449H60.9781V82.0329H47.8951V91.4469H63.2321V95.7339H43.1221V64.2649H63.2321V68.5519Z" fill="white"/>
<path d="M90.4592 73.724H85.6862C84.8902 70.277 82.5922 68.287 79.0552 68.287C77.1552 68.287 75.5642 68.95 74.3702 70.188C72.8232 71.868 72.5142 73.768 72.5142 80C72.5142 86.232 72.8242 88.133 74.3702 89.812C75.5632 91.049 77.1542 91.712 79.0552 91.712C81.1332 91.712 82.9892 90.96 84.2272 89.502C85.3762 88.176 85.7742 86.585 85.7742 84.552V82.784H79.0552V78.717H90.5472V83.534C90.5472 87.645 89.7952 90.165 87.7192 92.419C85.3762 94.895 82.3702 96 79.0552 96C75.6082 96 72.9562 94.851 70.9232 92.818C67.8732 89.724 67.7402 86.586 67.7402 80C67.7402 73.415 67.8732 70.276 70.9232 67.182C72.9562 65.149 75.6082 64 79.0552 64C85.6862 64 89.6192 68.375 90.4592 73.724Z" fill="white"/>
<path d="M120.293 95.7339H115.209L113.044 89.4139H100.624L98.458 95.7339H93.375L104.911 64.2649H108.756L120.293 95.7339ZM101.994 85.3479H111.674L106.812 71.3809L101.994 85.3479Z" fill="white"/>
<path d="M143.895 67.58L140.889 70.585C138.945 68.729 136.647 68.154 133.951 68.154C130.238 68.154 128.249 70.187 128.249 73.06C128.249 74.209 128.559 75.269 129.398 75.977C130.194 76.684 131.122 77.126 132.846 77.391L136.602 77.966C139.475 78.408 141.067 79.071 142.436 80.309C144.116 81.856 145 84.021 145 86.762C145 92.552 140.314 95.999 133.686 95.999C128.956 95.999 125.596 94.894 122.547 91.845L125.686 88.706C127.983 91.005 130.591 91.756 133.774 91.756C137.928 91.756 140.271 89.987 140.271 86.894C140.271 85.48 139.917 84.375 139.034 83.624C138.238 82.916 137.178 82.519 135.587 82.298L131.874 81.767C129.31 81.37 127.321 80.574 125.951 79.248C124.403 77.834 123.608 75.801 123.608 73.193C123.608 67.713 127.587 64 134.128 64C138.326 64 141.199 65.061 143.895 67.58Z" fill="white"/>
</svg>
