<svg width="22" height="17" viewBox="0 0 22 17" fill="none" xmlns="http://www.w3.org/2000/svg">
<path d="M19.6769 0.534226C19.7721 0.438988 19.8674 0.34375 20.0578 0.34375C20.2007 0.34375 20.3436 0.438988 20.4388 0.534226L21.0102 1.05804C21.1055 1.20089 21.1531 1.34375 21.1531 1.48661C21.1531 1.67708 21.1055 1.77232 21.0102 1.86756L6.72452 16.1533C6.58166 16.2961 6.4388 16.3437 6.29594 16.3437C6.15309 16.3437 6.01023 16.2961 5.91499 16.1533L0.248326 10.4866C0.153088 10.3914 0.105469 10.2961 0.105469 10.1057C0.105469 9.9628 0.153088 9.81994 0.248326 9.67708L0.819754 9.15327C0.914993 9.05804 1.01023 8.9628 1.20071 8.9628C1.34356 8.9628 1.48642 9.05804 1.58166 9.15327L6.29594 13.8676L19.6769 0.534226Z" fill="white"/>
</svg>
