<svg width="160" height="160" viewBox="0 0 160 160" fill="none" xmlns="http://www.w3.org/2000/svg">
<path d="M48.5547 60.4531H58.9375V95H52.2109V71.6328C52.2109 70.9609 52.2188 70.0234 52.2344 68.8203C52.25 67.6016 52.2578 66.6641 52.2578 66.0078L45.7188 95H38.7109L32.2188 66.0078C32.2188 66.6641 32.2266 67.6016 32.2422 68.8203C32.2578 70.0234 32.2656 70.9609 32.2656 71.6328V95H25.5391V60.4531H36.0391L42.3203 87.6172L48.5547 60.4531ZM88.5391 60.4531H98.9219V95H92.1953V71.6328C92.1953 70.9609 92.2031 70.0234 92.2188 68.8203C92.2344 67.6016 92.2422 66.6641 92.2422 66.0078L85.7031 95H78.6953L72.2031 66.0078C72.2031 66.6641 72.2109 67.6016 72.2266 68.8203C72.2422 70.0234 72.25 70.9609 72.25 71.6328V95H65.5234V60.4531H76.0234L82.3047 87.6172L88.5391 60.4531ZM120.906 89.8438C123.766 89.8438 126.031 88.7891 127.703 86.6797C129.391 84.5703 130.234 81.5703 130.234 77.6797C130.234 73.8047 129.391 70.8125 127.703 68.7031C126.031 66.5781 123.766 65.5156 120.906 65.5156C118.047 65.5156 115.766 66.5703 114.062 68.6797C112.359 70.7891 111.508 73.7891 111.508 77.6797C111.508 81.5703 112.359 84.5703 114.062 86.6797C115.766 88.7891 118.047 89.8438 120.906 89.8438ZM137.453 77.6797C137.453 83.8828 135.711 88.6328 132.227 91.9297C129.617 94.6172 125.844 95.9609 120.906 95.9609C115.969 95.9609 112.195 94.6172 109.586 91.9297C106.086 88.6328 104.336 83.8828 104.336 77.6797C104.336 71.3516 106.086 66.6016 109.586 63.4297C112.195 60.7422 115.969 59.3984 120.906 59.3984C125.844 59.3984 129.617 60.7422 132.227 63.4297C135.711 66.6016 137.453 71.3516 137.453 77.6797Z" fill="white"/>
</svg>
