<svg width="23" height="16" viewBox="0 0 23 16" fill="none" xmlns="http://www.w3.org/2000/svg">
<path d="M19.2143 6.96429C20.25 7.17857 21.1071 7.71429 21.8214 8.53571C22.5 9.39286 22.8571 10.3571 22.8571 11.4286C22.8571 12.2857 22.6429 13.0357 22.25 13.75C21.8214 14.4643 21.2857 15 20.5714 15.3929C19.8571 15.8214 19.1071 16 18.2857 16H5.14286C4.21429 16 3.35714 15.7857 2.57143 15.3214C1.78571 14.8571 1.14286 14.2143 0.678571 13.4286C0.214286 12.6429 0 11.7857 0 10.8571C0 9.75 0.321429 8.75 0.964286 7.85714C1.60714 7 2.42857 6.35714 3.42857 6V5.71429C3.42857 4.71429 3.67857 3.75 4.17857 2.85714C4.67857 2 5.39286 1.28571 6.28571 0.785714C7.14286 0.285714 8.10714 0 9.14286 0C10.1786 0 11.1429 0.285714 12.0357 0.785714C12.8929 1.32143 13.6071 2 14.1071 2.85714C14.6786 2.5 15.2857 2.28571 16 2.28571C16.9286 2.28571 17.75 2.64286 18.4286 3.28571C19.0714 3.96429 19.4286 4.78571 19.4286 5.71429C19.4286 6.14286 19.3571 6.57143 19.2143 6.96429Z" fill="#999999"/>
</svg>
