<svg width="160" height="160" viewBox="0 0 160 160" fill="none" xmlns="http://www.w3.org/2000/svg">
<path fill-rule="evenodd" clip-rule="evenodd" d="M18.2236 88.7582C13.7343 88.7582 10.417 85.2258 10.417 80.9189V80.8611C10.417 76.5532 13.7343 72.9352 18.2811 72.9352C20.6546 72.9352 22.2845 73.7099 23.5714 74.8299C23.8004 75.031 24.1147 75.4621 24.1147 76.0365C24.1147 76.9266 23.4008 77.6155 22.5135 77.6155C22.143 77.6123 21.7828 77.4917 21.4844 77.2711C20.5971 76.5244 19.6255 75.9788 18.2524 75.9788C15.7361 75.9788 13.8762 78.1611 13.8762 80.8034V80.8611C13.8762 83.5611 15.7361 85.7146 18.3951 85.7146C19.7682 85.7146 20.8261 85.169 21.77 84.3646C21.9702 84.1924 22.3133 83.9913 22.7138 83.9913C23.5427 83.9913 24.201 84.6802 24.201 85.5135C24.201 85.9725 24.0294 86.3459 23.7151 86.6047C22.3708 87.897 20.7408 88.7582 18.2236 88.7582V88.7582ZM26.8294 86.8346V69.0295C26.8294 68.0817 27.573 67.3071 28.5456 67.3071C29.5182 67.3071 30.2905 68.0817 30.2905 69.0295V86.8346C30.2905 87.8104 29.5182 88.5571 28.5456 88.5571C28.3199 88.5587 28.0961 88.5152 27.8873 88.4292C27.6785 88.3432 27.4888 88.2164 27.3292 88.0562C27.1696 87.8959 27.0433 87.7054 26.9577 87.4957C26.872 87.286 26.8288 87.0613 26.8304 86.8346H26.8294ZM33.8063 69.3452V69.1729C33.8063 68.1395 34.6639 67.4784 35.7792 67.4784C36.8946 67.4784 37.7522 68.1395 37.7522 69.1729V69.3452C37.7522 70.3786 36.8946 71.0676 35.7792 71.0676C34.6639 71.0676 33.8063 70.3786 33.8063 69.3452V69.3452ZM34.0631 86.8346V74.8299C34.0631 73.8542 34.8067 73.0786 35.7783 73.0786C36.0078 73.0771 36.2353 73.1214 36.4476 73.2089C36.6599 73.2964 36.8528 73.4253 37.0151 73.5882C37.1774 73.7511 37.3059 73.9447 37.3931 74.1579C37.4804 74.371 37.5246 74.5994 37.5232 74.8299V86.8346C37.5232 87.8104 36.7518 88.5571 35.7792 88.5571C35.5535 88.5587 35.3298 88.5152 35.121 88.4292C34.9121 88.3432 34.7224 88.2164 34.5628 88.0562C34.4032 87.8959 34.2769 87.7054 34.1913 87.4957C34.1057 87.286 34.0624 87.0613 34.064 86.8346H34.0631ZM41.0965 91.4293V74.8299C41.0965 73.8542 41.84 73.0786 42.8117 73.0786C43.0412 73.0771 43.2687 73.1214 43.481 73.2089C43.6933 73.2964 43.8862 73.4253 44.0485 73.5882C44.2108 73.7511 44.3393 73.9447 44.4265 74.1579C44.5137 74.371 44.5579 74.5994 44.5566 74.8299V75.7777C45.672 74.1986 47.2453 72.9352 49.7041 72.9352C53.2505 72.9352 56.7106 75.7488 56.7106 80.8034V80.8611C56.7106 85.8869 53.2792 88.7293 49.7041 88.7293C47.1878 88.7293 45.6154 87.4659 44.5566 86.0591V91.4293C44.5566 92.405 43.7843 93.1517 42.8117 93.1517C42.586 93.1533 42.3622 93.1099 42.1534 93.0239C41.9446 92.9379 41.7549 92.8111 41.5953 92.6508C41.4357 92.4906 41.3094 92.3 41.2238 92.0903C41.1381 91.8806 41.0949 91.6559 41.0965 91.4293ZM48.8753 85.7146C51.2488 85.7146 53.193 83.8479 53.193 80.8611V80.8034C53.193 77.8744 51.22 75.9499 48.8753 75.9499C46.5296 75.9499 44.4713 77.9032 44.4713 80.8034V80.8611C44.4713 83.7613 46.5296 85.7146 48.8753 85.7146V85.7146ZM66.3178 88.7591C61.8276 88.7591 58.5112 85.2258 58.5112 80.9189V80.8611C58.5112 76.5532 61.8276 72.9352 66.3743 72.9352C68.7478 72.9352 70.3787 73.7099 71.6656 74.8299C71.8946 75.031 72.2089 75.4621 72.2089 76.0365C72.2089 76.9266 71.4941 77.6155 70.6077 77.6155C70.2371 77.6123 69.877 77.4917 69.5786 77.2711C68.6913 76.5244 67.7187 75.9788 66.3465 75.9788C63.8293 75.9788 61.9704 78.1611 61.9704 80.8034V80.8611C61.9704 83.5611 63.8293 85.7146 66.4893 85.7146C67.8615 85.7146 68.9203 85.169 69.8641 84.3646C70.0635 84.1924 70.4075 83.9913 70.8071 83.9913C71.6369 83.9913 72.2942 84.6802 72.2942 85.5135C72.2942 85.9725 72.1227 86.3459 71.8084 86.6047C70.464 87.897 68.8341 88.7582 66.3178 88.7582V88.7591ZM74.7233 86.8346V69.0295C74.7233 68.0817 75.4669 67.3071 76.4386 67.3071C77.4121 67.3071 78.1835 68.0817 78.1835 69.0295V75.5766C79.1561 74.1698 80.557 72.9352 82.9027 72.9352C86.3053 72.9352 88.2783 75.2321 88.2783 78.7356V86.8346C88.2783 87.8104 87.5357 88.5571 86.5631 88.5571C85.5905 88.5571 84.8182 87.8104 84.8182 86.8346V79.7988C84.8182 77.4433 83.6463 76.0933 81.5871 76.0933C79.5844 76.0933 78.1844 77.501 78.1844 79.8556V86.8346C78.1844 87.8104 77.4112 88.5571 76.4395 88.5571C76.2138 88.5587 75.99 88.5152 75.7812 88.4292C75.5724 88.3432 75.3827 88.2164 75.2231 88.0562C75.0635 87.8959 74.9372 87.7054 74.8516 87.4957C74.7659 87.286 74.7227 87.0613 74.7243 86.8346H74.7233ZM95.855 88.7293C93.0244 88.7293 90.5072 87.0925 90.5072 84.049V83.9913C90.5072 80.7178 93.0522 79.1089 96.7414 79.1089C98.1203 79.0952 99.4922 79.3088 100.802 79.7411V79.3678C100.802 77.2143 99.4876 76.0654 97.0566 76.0654C95.74 76.0654 94.6543 76.2944 93.7096 76.6678C93.5338 76.7223 93.3512 76.7514 93.1672 76.7543C92.3661 76.7543 91.7088 76.1222 91.7088 75.3187C91.7088 74.6865 92.1371 74.1409 92.6526 73.9408C94.0823 73.3942 95.5407 73.0498 97.5137 73.0498C99.7731 73.0498 101.461 73.6531 102.518 74.7442C103.634 75.8354 104.148 77.4442 104.148 79.4255V86.8924C104.148 87.8392 103.405 88.5571 102.461 88.5571C101.46 88.5571 100.774 87.8681 100.774 87.0925V86.5181C99.7444 87.7536 98.172 88.7293 95.855 88.7293V88.7293ZM96.8276 86.2025C99.1158 86.2025 100.861 84.8813 100.861 82.9569V81.9234C99.9734 81.579 98.8006 81.3201 97.4284 81.3201C95.1976 81.3201 93.882 82.2679 93.882 83.8479V83.9047C93.882 85.3692 95.1689 86.2025 96.8276 86.2025ZM107.35 86.8346V74.8299C107.35 73.8542 108.093 73.0786 109.065 73.0786C109.295 73.0771 109.522 73.1214 109.734 73.2089C109.947 73.2964 110.14 73.4253 110.302 73.5882C110.464 73.7511 110.593 73.9447 110.68 74.1579C110.767 74.371 110.811 74.5994 110.81 74.8299V75.5486C111.783 74.1986 113.098 72.9352 115.414 72.9352C117.587 72.9352 119.132 73.9966 119.932 75.6054C121.134 73.9975 122.735 72.9352 125.022 72.9352C128.312 72.9352 130.314 75.031 130.314 78.7356V86.8346C130.314 87.8104 129.57 88.5571 128.598 88.5571C127.625 88.5571 126.853 87.8104 126.853 86.8346V79.7988C126.853 77.3865 125.738 76.0933 123.794 76.0933C121.906 76.0933 120.562 77.4154 120.562 79.8556V86.8346C120.562 87.8104 119.789 88.5571 118.847 88.5571C117.873 88.5571 117.102 87.8104 117.102 86.8346V79.77C117.102 77.4144 115.958 76.0942 114.042 76.0942C112.126 76.0942 110.81 77.5299 110.81 79.8556V86.8346C110.81 87.8104 110.038 88.5571 109.065 88.5571C108.839 88.5587 108.616 88.5152 108.407 88.4292C108.198 88.3432 108.008 88.2164 107.849 88.0562C107.689 87.8959 107.563 87.7054 107.477 87.4957C107.391 87.286 107.348 87.0613 107.35 86.8346V86.8346ZM133.572 91.4293V74.8299C133.572 73.8542 134.315 73.0786 135.288 73.0786C135.517 73.0771 135.745 73.1214 135.957 73.2089C136.169 73.2964 136.362 73.4253 136.525 73.5882C136.687 73.7511 136.815 73.9447 136.903 74.1579C136.99 74.371 137.034 74.5994 137.033 74.8299V75.7777C138.147 74.1986 139.72 72.9352 142.18 72.9352C145.726 72.9352 149.187 75.7488 149.187 80.8034V80.8611C149.187 85.8869 145.754 88.7293 142.18 88.7293C139.663 88.7293 138.09 87.4659 137.033 86.0591V91.4293C137.033 92.405 136.26 93.1517 135.288 93.1517C135.062 93.1533 134.838 93.1099 134.629 93.0239C134.421 92.9379 134.231 92.8111 134.071 92.6508C133.912 92.4906 133.785 92.3 133.7 92.0903C133.614 91.8806 133.571 91.6559 133.572 91.4293H133.572ZM141.35 85.7146C143.724 85.7146 145.669 83.8479 145.669 80.8611V80.8034C145.669 77.8744 143.695 75.9499 141.35 75.9499C139.005 75.9499 136.946 77.9032 136.946 80.8034V80.8611C136.946 83.7613 139.005 85.7146 141.35 85.7146Z" fill="#665DC3"/>
</svg>
